<?xml version="1.0" encoding="UTF-8"?>
<svg id="Layer_1" data-name="Layer 1" xmlns="http://www.w3.org/2000/svg" version="1.1" viewBox="0 0 288 288">
  <defs>
    <style>
      .cls-1 {
        fill: #000810;
      }

      .cls-1, .cls-2, .cls-3, .cls-4, .cls-5, .cls-6, .cls-7, .cls-8 {
        stroke-width: 0px;
      }

      .cls-2 {
        fill: #00b7eb;
      }

      .cls-3 {
        fill: #d71921;
      }

      .cls-4 {
        fill: #000;
      }

      .cls-5 {
        fill: #9a1c1f;
      }

      .cls-6 {
        fill: #ffca05;
      }

      .cls-7 {
        fill: #da2128;
      }

      .cls-8 {
        fill: #fff;
      }
    </style>
  </defs>
  <polygon class="cls-8" points="253.7 223.1 264 223.1 251.9 224.7 253.7 223.1"/>
  <g>
    <polygon class="cls-8" points="56 180.8 56 164.4 55.9 164.4 44.2 180.8 42.3 180.8 30.6 164.4 30.5 164.4 30.5 180.8 27.9 180.8 27.9 162.2 32 162.2 43.2 177.8 54.5 162.2 58.6 162.2 58.6 180.8 56 180.8"/>
    <rect class="cls-8" x="63.1" y="162.2" width="2.6" height="18.7"/>
    <path class="cls-8" d="M71.6,168v7c0,3.3,2,4,4.5,4h10.2c2.6,0,4.2-.9,4.2-3.5v-1.9h-9.9v-2.1h12.5v2.6c0,5.1-1.7,6.9-6.5,6.9h-10.7c-5.2,0-6.9-2.3-6.9-7v-5.1c0-4.7,1.7-7,6.9-7h9.8c3.5,0,7.2.8,7.2,5.1v.7h-2.5c0-3.5-1.1-3.7-7.5-3.7h-6.8c-2.5,0-4.5.7-4.5,4Z"/>
    <path class="cls-8" d="M71.8,139.8v-39.6l-6.2,1.7v-9.1l17.9-6.1v-16.2h11.4v12.3l13.5-4.6c1.7-2.4,3.9-4.4,6.3-6.1,1.4-1,5.3-3.7,11.3-5.6,2.5-.8,4.9-1.3,7.3-1.8-3.4-12.6-13.1-33.6-40-41.4,0,0,0,0,0,0,.6-.5,12.9-10.2,28.7-4.6,10.9,3.8,31,20.5,49.8,29.8.8-1.1,1.5-2.2,2.1-3.5,1.9-3.5,3.6-7,5.5-10.4,2.1-3.7,4.9-6.9,8.7-9.2.7-.4.9-.9.9-1.7,0-.5,0-.9,0-1.4-.3-1.5,0-2.7,1.1-3.8,1.5-1.6.9-1,1.8-3.4.6-1.5,1.9-3.5,3.6-3.5s1.7,3.6,2.1,6.1c.1.8.3,1.6.5,2.3.5,1.4,1.6,2,3,1.4.8-.3,1.5-.8,2.2-1.3,1.4-1.2,1.2-1,2.5-2.3.7-.7.7-.8,1.6-1.8.3-.3,1.1-1.7,1.5-1.7,2.1,0,1.6,2,1.2,3.6-.3,1.2-1,2.3-1.7,3.4-.6.9-.6,1.7,0,2.6,1.3,2,2.6,4.1,3.9,6.1.8,1.2,1.3,2.3.5,3.7-.3.5-.1.9.5,1,.2,0,.5.1.7.2,1.8.5,2.5,1.4,2.5,3.2,0,2.6,0,5.2,0,7.7,0,.7,0,1.4-.2,2-.5,1.7-1.7,2.5-3.5,2.2-.5,0-1.1-.3-1.6-.3-1.2,0-2.5-.1-3.6.2-2.2.7-4.3.5-6.3-.5-.7-.3-1.4-.6-2.1-.9-.7-.2-1.2,0-1.3.8-.3,1.7-.6,3.4-.8,5.1h0s1,1.1,0,2.7c0,0,0,0-.3,0-.1,2-.1,4,0,6,.5,5.2,1,10.4,1.5,15.7.2,2.4,0,4.7-.5,7l20.1,6.9v9.1l-6.2-1.7v39.6l51.4,6.7h-72.4c.4,1.4,1.4,2.5,2.8,3.3,1.5.8,2.2,1.9,2.2,3.6,0,1.6-.9,2.5-2.5,2.5-2.1,0-4.2,0-6.3-.2-1.6,0-2.3-.7-2.5-2.2-.2-1.3-.3-2.6-.3-3.9s0-2.1-.3-3.1h-8.5c.5,2.4,1.6,4.7,3.5,6,1.2.8,1.6,2.4,1.2,3.8-.2.7-.7,1.1-1.4,1.2-.8.1-1.6.2-2.4.2-1.2,0-3.1-.5-4.3-.4q-2.3.2-3.1-.5c-1-1-.6-5.3-.7-7,0-1-.2-2.1-.3-3.3h-25.7s-23.7,0-23.7,0c.5,1.8,1.6,3.4,3.1,4.3,1.2.7,1.5,1.8,1.6,3,0,.9-.4,1.5-1.3,1.5-2.4,0-4.8,0-7.2,0-.5,0-1-.6-1.3-1-1.4-2.2-1.9-5.1-1.8-7.8h-16.9c.5,1.4,1.6,2.5,2.8,3.5.9.7,1.6,1.6,2.2,2.6.7,1.1,1,2.7-.2,2.8-2.9.3-4.2,1.2-7.1.3-.8-.3-1.7-1.1-1.7-2-.2-2-3.2-4.9-3.2-6.9v-.3h-9.7s-57.2,0-57.2,0l51.4-6.7Z"/>
    <polygon class="cls-8" points="116.7 172.3 99.3 172.3 99.3 180.8 96.7 180.8 96.7 162.2 99.3 162.2 99.3 170.2 116.7 170.2 116.7 162.2 119.3 162.2 119.3 180.8 116.7 180.8 116.7 172.3"/>
    <polygon class="cls-8" points="145 164.2 135.2 164.2 135.2 180.8 132.6 180.8 132.6 164.2 122.9 164.2 122.9 162.2 146.5 162.2 155.3 170.8 164.2 162.2 167.7 162.2 156.6 172.9 156.6 180.8 154 180.8 154 172.9 145 164.1 145 164.2"/>
    <polygon class="cls-8" points="150 190.8 150 195.4 168.6 195.4 168.6 201.2 150 201.2 150 209.6 142 209.6 142 184.9 169.5 184.9 169.5 190.8 150 190.8"/>
    <rect class="cls-8" x="173.3" y="184.9" width="8.1" height="24.7"/>
    <polygon class="cls-8" points="193.9 209.6 185.8 209.6 185.8 184.9 198.3 184.9 213.5 202.8 213.6 202.8 213.6 184.9 221.6 184.9 221.6 209.6 209.1 209.6 194 191.6 193.9 191.6 193.9 209.6"/>
    <path class="cls-8" d="M212.5,229.9c2,23-70.3,42.8-70.3,42.8,0,0-72.4-19.8-70.3-42.8l-51.4-6.8h121.8c0,0,65.4,0,65.4,0h0c0,0,46.2,0,46.2,0h10.3s-12,1.6-12,1.6l-39.4,5.2Z"/>
    <path class="cls-8" d="M237,168v7c0,3.3,2,4,4.5,4h10.2c2.6,0,4.2-.9,4.2-3.5v-1.9h-9.9v-2.1h12.5v2.6c0,5.1-1.7,6.9-6.5,6.9h-10.7c-5.2,0-6.9-2.3-6.9-7v-5.1c0-4.7,1.6-7,6.9-7h9.8c3.5,0,7.2.8,7.2,5.1v.7h-2.5c0-3.5-1.1-3.7-7.5-3.7h-6.8c-2.5,0-4.5.7-4.5,4Z"/>
    <path class="cls-8" d="M225.1,200.9v-7.4c0-7.2,4.3-8.9,11.6-8.9h12.1c9.2,0,10.4,3.1,10.4,7.9v.8h-7.9c0-2.5-1.5-2.8-4.1-2.8h-8.8c-4.1,0-5.1.9-5.1,5.2v3.1c0,4.2,1.1,5.2,5.1,5.2h8.6c2.1,0,4.2-.3,4.2-2.7v-.7h-10v-5.1h18.1v7c0,7.1-3.9,7.4-13,7.4h-9.7c-7.3,0-11.6-1.7-11.6-9Z"/>
    <g>
      <path class="cls-3" d="M194.7,162.2h-15.6v18.7h15.5c6.5,0,8.3-2.5,8.3-9.3s-1.8-9.3-8.2-9.3ZM200.3,172.5c0,5.6-2.2,6.3-5.4,6.3h-13.2v-14.6h13.7c3.2,0,4.9,1,4.9,6.4v1.9Z"/>
      <path class="cls-3" d="M116.7,162.2v8h-17.4v-8h-2.6v18.7h2.6v-8.6h17.4v8.6h2.6v-18.7h-2.6Z"/>
      <polygon class="cls-3" points="142 77.5 142 77.6 142 97.4 142 146.5 118.2 146.5 111.4 146.5 94.6 146.5 87.3 146.5 77.6 146.5 75.5 146.5 75.5 99.5 105 89.8 142 77.5"/>
      <polygon class="cls-2" points="207.9 99.5 207.9 146.5 205.9 146.5 190.6 146.5 183.7 146.5 175.2 146.5 167.7 146.5 142 146.5 142 97.4 142.1 77.5 142.1 77.3 194.1 94.9 207.9 99.5"/>
      <path class="cls-3" d="M142.2,223v49.6s0,0-.1,0c-2.9-1-65.5-23.6-65.3-38.3v-11.2h65.4Z"/>
      <polygon class="cls-1" points="263 146.5 205.9 146.5 205.9 99.2 193.9 95.2 142.1 77.5 142.1 77.5 142 77.6 105 90 77.6 99.2 77.6 146.5 20.4 146.5 71.8 139.8 71.8 100.2 65.6 101.9 65.6 92.8 83.5 86.7 83.5 70.6 94.9 70.6 94.9 82.9 108.4 78.3 134.3 69.5 142 66.8 142 66.8 142.1 66.8 142.1 66.8 142.1 66.8 145.9 68.1 197.7 85.9 217.8 92.8 217.8 101.9 211.6 100.2 211.6 139.8 263 146.5"/>
      <path class="cls-2" d="M207.6,234.3c.3,14.7-62.4,37.2-65.3,38.3,0,0,0,0-.1,0v-49.6h65.4v11.3Z"/>
      <path class="cls-1" d="M264,223.1h-10.3s-46.2.1-46.2.1h-.7v5.8s2.9,17.8-64.3,43.5c0,0-.1,0-.2,0,0,0,0,0-.1,0,0,0,72.4-19.8,70.3-42.8l39.4-5.2,12-1.6ZM142.1,272.6c0,0-.1,0-.2,0-67.3-25.7-64.3-43.5-64.3-43.5v-5.9H20.4l51.4,6.8c-2,23,70.3,42.8,70.3,42.8,0,0,0,0-.1,0Z"/>
      <g>
        <path class="cls-5" d="M173.3,51.7l-1.2.8-26.1,15.7-10.9,6.6s-.1-2-.8-5.2c-.3-1.4-.6-2.9-1.1-4.7-3.4-12.6-13.1-33.6-40-41.4,0,0,0,0,0,0,.6-.5,15.9-12.2,35.8,1.8,16.1,11.4,34.6,21.4,41.5,25,1.8,1,2.9,1.5,2.9,1.5Z"/>
        <path class="cls-1" d="M216.3,38.2c0-1.9-.7-2.7-2.5-3.2-.2,0-.5-.1-.7-.2-.6-.1-.8-.5-.5-1,.8-1.4.3-2.6-.5-3.7-1.3-2-2.6-4.1-3.9-6.1-.6-.9-.6-1.7,0-2.6.7-1,1.4-2.2,1.7-3.4.5-1.6.9-3.6-1.2-3.6-.4,0-1.2,1.4-1.5,1.7-.9,1-1,1-1.6,1.8-1.3,1.4-1.1,1.1-2.5,2.3-.6.6-1.4,1-2.2,1.3-1.4.5-2.5,0-3-1.4-.2-.7-.4-1.5-.5-2.3-.4-2.4-.9-6.1-2.1-6.1-1.7,0-3,2-3.6,3.5-1,2.4-.4,1.8-1.8,3.4-1,1.1-1.4,2.3-1.1,3.8,0,.5,0,.9,0,1.4,0,.7-.3,1.3-.9,1.7-3.7,2.3-6.5,5.4-8.7,9.2-1.9,3.4-3.6,7-5.5,10.4-.7,1.2-1.4,2.4-2.1,3.5-.4.6-.8,1.1-1.2,1.7-.3.4-.6.8-1,1.2-4,4.5-9,7.6-15.4,9.1-4.8,1.1-9.7,2-14.5,3.1-2.2.5-4.3.8-6.4,1.2-2.4.5-4.8,1-7.3,1.8-5.9,1.9-9.8,4.6-11.3,5.6-2.4,1.7-4.6,3.7-6.3,6.1-.1.1-.2.3-.3.4-2.2,3.4-3,7.1-3.1,11.1h0c0,.1,0,.2,0,.2,0,2.5,0,5.1-.5,7.6-1,6.3-3.8,11.9-7.2,17.1-1.9,2.8-3.7,5.7-6.5,7.7-2.1,1.6-3.4,3.3-3.1,6,0,.3,0,.6,0,1-.1,5.7-.3,11.4-.4,17.1v.3c0,2,3.1,4.9,3.2,6.9,0,.8.9,1.7,1.7,2,2.9.9,4.1,0,7.1-.3,1.2-.2.9-1.8.2-2.8-.6-1-1.3-1.9-2.2-2.6-1.2-1-2.3-2.1-2.8-3.4-.2-.6-.3-1.2-.2-1.8.2-2.5.3-4.9.3-7.4,0-3.3,1.1-6.1,3.5-8.4,1.7-1.6,3.6-3,5.4-4.4,6.6-4.9,11.8-10.9,15.3-18.4,0-.2.2-.3.3-.5.1,0,.2,0,.3,0,.1.6.3,1.1.3,1.6,0,1.5,0,3.1-.1,4.7-.5,4.7-2.1,8.9-5.9,11.9-1.8,1.4-2.2,3.2-1.9,5.3.3,2.4.6,4.8.6,7.3,0,2.5-.3,4.9-.8,7.3-.2.9-.3,1.8-.3,2.7,0,2.7.4,5.6,1.8,7.8.3.4.8,1,1.3,1,2.4,0,4.8,0,7.2,0,.9,0,1.4-.6,1.3-1.5,0-1.2-.5-2.4-1.6-3-1.6-.9-2.6-2.5-3.1-4.3-.3-.9-.4-1.9-.3-2.8.3-3.3.9-6.6,1.3-9.9.4-2.7,1.7-4.9,3.6-6.9,1.6-1.6,3.2-3.3,4.8-4.9,2.5-2.7,5-5.4,6.3-8.8,1.3-3.6,2.5-7.3,3.7-10.9.5-1.4.9-2.8,1.5-4.1.5-1.2,1.3-1.4,2.4-.9.2,0,.3.2.5.2,0,0,0,0,0,0,.5.3.9.5,1.4.8,5.7,3.7,11.7,6.8,18.3,8.3,1,.2,1.4.7,1.5,1.8.2,1.5.3,3.1.5,4.6.3,3.1.8,6.3,1.1,9.4.3,4.6.5,9.3.8,13.9.1,1.8.5,3.6,1.1,5.2.4,1.4.8,3.2,1,4.9.2,1.2.3,2.3.3,3.3.1,1.7-.3,6.1.7,7q.8.7,3.1.5c1.2-.1,3.1.5,4.3.4.8,0,1.6-.1,2.4-.2.7-.1,1.2-.5,1.4-1.2.4-1.4,0-2.9-1.2-3.8-1.9-1.3-3-3.6-3.5-6-.2-1-.3-2-.3-3,0-3.5-.4-6.9-1.1-10.3-.8-3.8-1.3-7.7-1.2-11.6.2-4.9.5-9.7.8-14.6,0-.8.4-1.3,1.2-1.5,1.1-.3,2.2-.5,3.2-.9.7-.2,1,0,1.1.7.3,2.8.7,5.6.9,8.5.3,2.7.3,5.4.6,8.1.6,5.6,1.5,11.1,1.4,16.7,0,1.4.3,2.9.8,4.3.4,1.2.8,2.3,1,3.5.2,1,.3,2,.3,3.1s.1,2.6.3,3.9c.2,1.6.9,2.2,2.5,2.2,2.1,0,4.2.2,6.3.2,1.6,0,2.5-.9,2.5-2.5,0-1.7-.8-2.8-2.2-3.6-1.4-.8-2.4-1.8-2.8-3.3-.1-.4-.2-.8-.2-1.3-.2-4.9-.4-9.9-.7-14.8-.2-3.8-.4-7.5.6-11.3,1-3.9.8-8,.8-12,0-4.2.9-8.1,2.8-11.9,0-.1.1-.2.2-.3,0-.2.2-.3.2-.5,1.5-2.7,2.7-5.6,3.3-8.5.5-2.2.7-4.6.5-7-.5-5.2-1-10.4-1.5-15.7-.2-2-.2-4,0-6,0-.9.2-1.9.3-2.8.2-1.7.5-3.4.8-5.1.1-.7.6-1,1.3-.8.7.2,1.4.5,2.1.9,2,1,4.1,1.2,6.3.5,1.1-.3,2.4-.2,3.6-.2.5,0,1.1.2,1.6.3,1.8.3,3-.5,3.5-2.2.2-.6.2-1.3.2-2,0-2.6,0-5.2,0-7.7Z"/>
        <path class="cls-7" d="M196.9,57.2s0,0-.3,0c-.6.2-2.2.5-5.1.3-.6,0-1.3-.1-2-.2-.1,0-.3,0-.4,0-3.9-.5-9.5-1.9-17.1-4.9-.8-.3-1.7-.7-2.6-1.1-2.3-1-4.7-2.1-7.3-3.3-26.1-12.7-47.6-36-69-24.7,0,0,0,0,0,0,.6-.5,12.9-10.2,28.7-4.6,10.9,3.8,31,20.5,49.8,29.8,6,2.9,11.8,5.1,17.2,6,0,0,.1,0,.2,0,.8.1,1.7.2,2.5.3,1.8.1,3.6,0,5.3-.2h0s1,1.1,0,2.7Z"/>
        <path class="cls-6" d="M190.6,58.2h0c-.2,0-.4,0-.6,0h0s0,0-.1,0c-1.1,0-2.1.3-3,.8l3.1,7,3-7c-.7-.4-1.5-.7-2.3-.8ZM192.6,62.3h0l-2.7,6.1-2.7-6.1h0l-1.2,6.3c1,.9,2.4,1.4,3.8,1.4s2.8-.5,3.9-1.4l-1.1-6.3ZM193,59.1l1.7,8.5c.7-1,1.1-2.2,1.1-3.4,0-2.1-1.1-4-2.8-5ZM183.8,64.1c0,1.4.5,2.6,1.2,3.6l1.7-8.7c-1.7,1-2.9,2.9-2.9,5.1Z"/>
        <path class="cls-6" d="M190.5,54.1c-.5-.1-1.2,0-1.5.4.5,0,1,.2,1.2.2.6,0,1.1.6,1.1,1.4s-.4,1.4-1.1,1.4-1.2-.1-1.2-.1c.3.6.9.9,1.4.9.9,0,1.8-1,1.6-2.2-.2-1.4-.8-1.8-1.5-1.9Z"/>
      </g>
      <g>
        <path class="cls-3" d="M54.5,162.2l-11.3,15.7-11.3-15.7h-4.1v18.7h2.6v-16.4h0l11.7,16.4h1.9l11.7-16.4h0v16.4h2.6v-18.7h-4.1Z"/>
        <path class="cls-3" d="M63.1,162.2v18.7h2.6v-18.7h-2.6Z"/>
        <path class="cls-3" d="M80.7,171.6v2.1h9.9v1.9c0,2.6-1.6,3.5-4.2,3.5h-10.2c-2.5,0-4.5-.7-4.5-4v-7c0-3.3,2-4,4.5-4h6.8c6.4,0,7.5.3,7.5,3.7h2.5v-.7c0-4.3-3.7-5.1-7.2-5.1h-9.8c-5.2,0-6.9,2.3-6.9,7v5.1c0,4.7,1.7,7,6.9,7h10.7c4.8,0,6.5-1.8,6.5-6.9v-2.6h-12.5Z"/>
        <path class="cls-3" d="M122.9,162.2v2.1h9.7v16.6h2.6v-16.6h9.7v-2.1h-22.1Z"/>
        <path class="cls-3" d="M164.2,162.2l-8.8,8.7-8.8-8.7h-3.5l2,1.9,9.1,8.8v7.9h2.6v-7.9l11-10.8h-3.5Z"/>
        <path class="cls-3" d="M224.4,162h-11.1c-5.2,0-6.9,2.3-6.9,7v5.1c0,4.7,1.7,7,6.9,7h11.1c5.2,0,6.9-2.3,6.9-7v-5.1c0-4.7-1.7-7-6.9-7ZM228.7,175c0,3.3-2,4-4.5,4h-10.6c-2.5,0-4.5-.7-4.5-4v-7c0-3.3,2-4,4.5-4h10.6c2.5,0,4.5.7,4.5,4v7Z"/>
        <path class="cls-3" d="M246,171.6v2.1h9.9v1.9c0,2.6-1.6,3.5-4.2,3.5h-10.2c-2.5,0-4.5-.7-4.5-4v-7c0-3.3,2-4,4.5-4h6.8c6.4,0,7.5.3,7.5,3.7h2.5v-.7c0-4.3-3.7-5.1-7.2-5.1h-9.8c-5.2,0-6.9,2.3-6.9,7v5.1c0,4.7,1.6,7,6.9,7h10.7c4.8,0,6.5-1.8,6.5-6.9v-2.6h-12.5Z"/>
      </g>
      <g>
        <path class="cls-1" d="M60,193.8v-1.6c0-4.4-1.7-7.3-7.9-7.3h-24.4v24.7h8.1v-6.4h12.7c2.5,0,3.3.9,3.3,3.4v3h8.1v-4.2c0-4.1-2-5.1-4.4-5.5h0c3.7-.9,4.5-2.8,4.5-6.1ZM52.1,194.4c0,1.8-.8,2.6-3,2.6h-13.3v-6h12.6c2.5,0,3.7.4,3.7,2.6v.8Z"/>
        <path class="cls-1" d="M88,184.6h-12.9c-7.3,0-11.6,1.7-11.6,8.9v7.4c0,7.2,4.3,9,11.6,9h12.9c7.3,0,11.6-1.7,11.6-9v-7.4c0-7.2-4.3-8.9-11.6-8.9ZM91.3,198.6c0,3.6-.8,4.9-4.6,4.9h-10.3c-3.8,0-4.6-1.4-4.6-4.9v-2.7c0-3.1.8-5,5.1-5h9.5c4.3,0,5.1,1.9,5.1,5v2.7Z"/>
        <path class="cls-1" d="M127,184.6h-13c-7.3,0-11.6,1.7-11.6,8.9v7.4c0,7.2,4.3,9,11.6,9h13c7.3,0,11.6-1.7,11.6-9v-7.4c0-7.2-4.3-8.9-11.6-8.9ZM130.3,198.6c0,3.6-.8,4.9-4.6,4.9h-10.3c-3.8,0-4.6-1.4-4.6-4.9v-2.7c0-3.1.8-5,5.1-5h9.5c4.3,0,5.1,1.9,5.1,5v2.7Z"/>
        <path class="cls-1" d="M169.5,190.8v-5.9h-27.5v24.7h8.1v-8.4h18.5v-5.7h-18.5v-4.6h19.4Z"/>
        <path class="cls-1" d="M173.3,184.9v24.7h8.1v-24.7h-8.1Z"/>
        <path class="cls-1" d="M213.6,184.9v18h0l-15.2-18h-12.5v24.7h8.1v-18h0l15.2,18h12.5v-24.7h-8.1Z"/>
        <path class="cls-1" d="M241.3,195.4v5.1h10v.7c0,2.4-2.1,2.7-4.2,2.7h-8.6c-4.1,0-5.1-.9-5.1-5.2v-3.1c0-4.2,1.1-5.2,5.1-5.2h8.8c2.6,0,4.1.3,4.1,2.8h7.9v-.8c0-4.8-1.3-7.9-10.4-7.9h-12.1c-7.3,0-11.6,1.7-11.6,8.9v7.4c0,7.2,4.3,9,11.6,9h9.7c9.1,0,13-.3,13-7.4v-7h-18.1Z"/>
      </g>
      <g>
        <polygon class="cls-1" points="99.4 229.3 101.3 234 106.4 234.3 102.5 237.6 103.8 242.5 99.4 239.8 95.1 242.5 96.4 237.6 92.5 234.3 97.6 234 99.4 229.3"/>
        <polygon class="cls-8" points="100.7 228.5 102.6 233.2 107.7 233.6 103.7 236.8 105 241.8 100.7 239 96.4 241.8 97.6 236.8 93.7 233.6 98.8 233.2 100.7 228.5"/>
      </g>
      <g>
        <polygon class="cls-1" points="141 247.3 142.9 252 148 252.3 144.1 255.6 145.3 260.5 141 257.8 136.7 260.5 138 255.6 134 252.3 139.1 252 141 247.3"/>
        <polygon class="cls-8" points="142.2 246.5 144.1 251.3 149.2 251.6 145.3 254.8 146.5 259.8 142.2 257 137.9 259.8 139.2 254.8 135.3 251.6 140.4 251.3 142.2 246.5"/>
      </g>
      <g>
        <polygon class="cls-1" points="120.4 238.3 122.2 243 127.3 243.3 123.4 246.6 124.7 251.5 120.4 248.8 116 251.5 117.3 246.6 113.4 243.3 118.5 243 120.4 238.3"/>
        <polygon class="cls-8" points="121.6 237.5 123.5 242.3 128.6 242.6 124.6 245.8 125.9 250.8 121.6 248 117.3 250.8 118.5 245.8 114.6 242.6 119.7 242.3 121.6 237.5"/>
      </g>
      <g>
        <polygon class="cls-1" points="161.5 238.3 163.4 243 168.5 243.3 164.5 246.6 165.8 251.5 161.5 248.8 157.2 251.5 158.5 246.6 154.5 243.3 159.6 243 161.5 238.3"/>
        <polygon class="cls-8" points="162.7 237.5 164.6 242.3 169.7 242.6 165.8 245.8 167 250.8 162.7 248 158.4 250.8 159.7 245.8 155.8 242.6 160.8 242.3 162.7 237.5"/>
      </g>
      <g>
        <polygon class="cls-1" points="181.3 229.3 183.2 234 188.3 234.3 184.4 237.6 185.6 242.5 181.3 239.8 177 242.5 178.3 237.6 174.3 234.3 179.4 234 181.3 229.3"/>
        <polygon class="cls-8" points="182.5 228.5 184.4 233.2 189.5 233.6 185.6 236.8 186.9 241.8 182.5 239 178.2 241.8 179.5 236.8 175.6 233.6 180.7 233.2 182.5 228.5"/>
      </g>
    </g>
  </g>
  <path class="cls-4" d="M262.3,231.7c0,2.1-1.6,3.7-3.8,3.7s-3.8-1.6-3.8-3.7,1.7-3.7,3.8-3.7,3.8,1.6,3.8,3.7ZM255.6,231.7c0,1.6,1.2,2.9,2.9,2.9s2.8-1.3,2.8-2.9-1.2-3-2.8-3-2.8,1.3-2.8,2.9ZM257.9,233.6h-.9v-3.7c.3,0,.8-.1,1.4-.1s1,.1,1.3.3c.2.2.4.4.4.8s-.3.7-.8.9h0c.4.2.6.4.7.9.1.6.2.8.3.9h-.9c-.1-.1-.2-.5-.3-.9,0-.4-.3-.6-.8-.6h-.4v1.5ZM257.9,231.5h.4c.5,0,.9-.2.9-.5s-.2-.6-.8-.6-.4,0-.5,0v1.1Z"/>
</svg>